HIERARCHY
ROOT Hips
{
  OFFSET -317.839 92.0481 602.649
  CHANNELS 6 Xposition Yposition Zposition Zrotation Xrotation Yrotation
  JOINT Spine
  {
    OFFSET 0 8 -1.23054e-05
    CHANNELS 6 Xposition Yposition Zposition Zrotation Xrotation Yrotation
    JOINT Spine1
    {
      OFFSET 0 8 1.03204e-05
      CHANNELS 6 Xposition Yposition Zposition Zrotation Xrotation Yrotation
      JOINT Spine2
      {
        OFFSET 0 8 0
        CHANNELS 6 Xposition Yposition Zposition Zrotation Xrotation Yrotation
        JOINT Spine3
        {
          OFFSET 0 8 0
          CHANNELS 6 Xposition Yposition Zposition Zrotation Xrotation Yrotation
          JOINT Neck
          {
            OFFSET 3.27843e-05 17 0
            CHANNELS 6 Xposition Yposition Zposition Zrotation Xrotation Yrotation
            JOINT Head
            {
              OFFSET 0 10.8 0
              CHANNELS 6 Xposition Yposition Zposition Zrotation Xrotation Yrotation
              End Site
              {
                OFFSET 0 20.25 0
              }
            }
          }
          JOINT LeftShoulder
          {
            OFFSET 5 17 0
            CHANNELS 6 Xposition Yposition Zposition Zrotation Xrotation Yrotation
            JOINT LeftShoulder2
            {
              OFFSET 6.45 0 0
              CHANNELS 6 Xposition Yposition Zposition Zrotation Xrotation Yrotation
              JOINT LeftArm
              {
                OFFSET 6.45001 0 0
                CHANNELS 6 Xposition Yposition Zposition Zrotation Xrotation Yrotation
                JOINT LeftForeArm
                {
                  OFFSET 1.33596e-05 -32.4 -2.00001
                  CHANNELS 6 Xposition Yposition Zposition Zrotation Xrotation Yrotation
                  JOINT LeftHand
                  {
                    OFFSET 1.66541e-05 -25.65 2.00002
                    CHANNELS 6 Xposition Yposition Zposition Zrotation Xrotation Yrotation
                    JOINT LeftHandThumb1
                    {
                      OFFSET -0.499999 -1.50001 2.64999
                      CHANNELS 6 Xposition Yposition Zposition Zrotation Xrotation Yrotation
                      JOINT LeftHandThumb2
                      {
                        OFFSET -2.43491e-05 -3.8 3.69999
                        CHANNELS 6 Xposition Yposition Zposition Zrotation Xrotation Yrotation
                        JOINT LeftHandThumb3
                        {
                          OFFSET 2.62274e-05 -2.99997 2.70001
                          CHANNELS 6 Xposition Yposition Zposition Zrotation Xrotation Yrotation
                          End Site
                          {
                            OFFSET -2.2158e-05 -2.30002 1.8
                          }
                        }
                      }
                    }
                    JOINT LeftHandIndex
                    {
                      OFFSET 0 -1.90002 1.59999
                      CHANNELS 6 Xposition Yposition Zposition Zrotation Xrotation Yrotation
                      JOINT LeftHandIndex1
                      {
                        OFFSET 0 -8.29998 1.9
                        CHANNELS 6 Xposition Yposition Zposition Zrotation Xrotation Yrotation
                        JOINT LeftHandIndex2
                        {
                          OFFSET 4.6648e-05 -4.49998 0
                          CHANNELS 6 Xposition Yposition Zposition Zrotation Xrotation Yrotation
                          JOINT LeftHandIndex3
                          {
                            OFFSET 0 -3.40002 0
                            CHANNELS 6 Xposition Yposition Zposition Zrotation Xrotation Yrotation
                            End Site
                            {
                              OFFSET 0 -2.59998 0
                            }
                          }
                        }
                      }
                    }
                    JOINT LeftHandMiddle
                    {
                      OFFSET -0.249979 -2.19998 0.400009
                      CHANNELS 6 Xposition Yposition Zposition Zrotation Xrotation Yrotation
                      JOINT LeftHandMiddle1
                      {
                        OFFSET -2.27185e-05 -8.30003 0.999989
                        CHANNELS 6 Xposition Yposition Zposition Zrotation Xrotation Yrotation
                        JOINT LeftHandMiddle2
                        {
                          OFFSET 0 -4.64996 0
                          CHANNELS 6 Xposition Yposition Zposition Zrotation Xrotation Yrotation
                          JOINT LeftHandMiddle3
                          {
                            OFFSET 0 -3.3 0
                            CHANNELS 6 Xposition Yposition Zposition Zrotation Xrotation Yrotation
                            End Site
                            {
                              OFFSET -4.26965e-05 -2.70004 0
                            }
                          }
                        }
                      }
                    }
                    JOINT LeftHandRing
                    {
                      OFFSET -0.499989 -2.14999 -0.799996
                      CHANNELS 6 Xposition Yposition Zposition Zrotation Xrotation Yrotation
                      JOINT LeftHandRing1
                      {
                        OFFSET 0 -7.74999 -0.199997
                        CHANNELS 6 Xposition Yposition Zposition Zrotation Xrotation Yrotation
                        JOINT LeftHandRing2
                        {
                          OFFSET 0 -3.80003 -1.36556e-05
                          CHANNELS 6 Xposition Yposition Zposition Zrotation Xrotation Yrotation
                          JOINT LeftHandRing3
                          {
                            OFFSET 0 -3.39998 1.50478e-05
                            CHANNELS 6 Xposition Yposition Zposition Zrotation Xrotation Yrotation
                            End Site
                            {
                              OFFSET 0 -2.60003 -1.24485e-05
                            }
                          }
                        }
                      }
                    }
                    JOINT LeftHandPinky
                    {
                      OFFSET -0.750007 -1.75001 -1.85001
                      CHANNELS 6 Xposition Yposition Zposition Zrotation Xrotation Yrotation
                      JOINT LeftHandPinky1
                      {
                        OFFSET 0 -7.14998 -1
                        CHANNELS 6 Xposition Yposition Zposition Zrotation Xrotation Yrotation
                        JOINT LeftHandPinky2
                        {
                          OFFSET 0 -2.99998 1.88355e-05
                          CHANNELS 6 Xposition Yposition Zposition Zrotation Xrotation Yrotation
                          JOINT LeftHandPinky3
                          {
                            OFFSET 2.04727e-05 -2.35001 0
                            CHANNELS 6 Xposition Yposition Zposition Zrotation Xrotation Yrotation
                            End Site
                            {
                              OFFSET 1.47757e-05 -2.09998 1.08149e-05
                            }
                          }
                        }
                      }
                    }
                  }
                }
              }
            }
          }
          JOINT RightShoulder
          {
            OFFSET -4.99999 17 1.49601e-05
            CHANNELS 6 Xposition Yposition Zposition Zrotation Xrotation Yrotation
            JOINT RightShoulder2
            {
              OFFSET -6.45 0 0
              CHANNELS 6 Xposition Yposition Zposition Zrotation Xrotation Yrotation
              JOINT RightArm
              {
                OFFSET -6.45 0 -1.92587e-05
                CHANNELS 6 Xposition Yposition Zposition Zrotation Xrotation Yrotation
                JOINT RightForeArm
                {
                  OFFSET 2.96092e-05 -32.4 -1.99999
                  CHANNELS 6 Xposition Yposition Zposition Zrotation Xrotation Yrotation
                  JOINT RightHand
                  {
                    OFFSET 0 -25.65 2
                    CHANNELS 6 Xposition Yposition Zposition Zrotation Xrotation Yrotation
                    JOINT RightHandThumb1
                    {
                      OFFSET 0.499991 -1.50003 2.64999
                      CHANNELS 6 Xposition Yposition Zposition Zrotation Xrotation Yrotation
                      JOINT RightHandThumb2
                      {
                        OFFSET 1.70597e-05 -3.8 3.70001
                        CHANNELS 6 Xposition Yposition Zposition Zrotation Xrotation Yrotation
                        JOINT RightHandThumb3
                        {
                          OFFSET -1.22054e-05 -2.99999 2.69998
                          CHANNELS 6 Xposition Yposition Zposition Zrotation Xrotation Yrotation
                          End Site
                          {
                            OFFSET 0 -2.30001 1.8
                          }
                        }
                      }
                    }
                    JOINT RightHandIndex
                    {
                      OFFSET -1.07322e-05 -1.90001 1.6
                      CHANNELS 6 Xposition Yposition Zposition Zrotation Xrotation Yrotation
                      JOINT RightHandIndex1
                      {
                        OFFSET 1.12524e-05 -8.29998 1.89992
                        CHANNELS 6 Xposition Yposition Zposition Zrotation Xrotation Yrotation
                        JOINT RightHandIndex2
                        {
                          OFFSET -1.24513e-05 -4.50003 0
                          CHANNELS 6 Xposition Yposition Zposition Zrotation Xrotation Yrotation
                          JOINT RightHandIndex3
                          {
                            OFFSET 7.01578e-05 -3.39998 1.03286e-05
                            CHANNELS 6 Xposition Yposition Zposition Zrotation Xrotation Yrotation
                            End Site
                            {
                              OFFSET 0 -2.60002 0
                            }
                          }
                        }
                      }
                    }
                    JOINT RightHandMiddle
                    {
                      OFFSET 0.249984 -2.2 0.39999
                      CHANNELS 6 Xposition Yposition Zposition Zrotation Xrotation Yrotation
                      JOINT RightHandMiddle1
                      {
                        OFFSET 0 -8.30001 1
                        CHANNELS 6 Xposition Yposition Zposition Zrotation Xrotation Yrotation
                        JOINT RightHandMiddle2
                        {
                          OFFSET -5.24186e-05 -4.64998 0
                          CHANNELS 6 Xposition Yposition Zposition Zrotation Xrotation Yrotation
                          JOINT RightHandMiddle3
                          {
                            OFFSET 1.7112e-05 -3.30001 -1.15961e-05
                            CHANNELS 6 Xposition Yposition Zposition Zrotation Xrotation Yrotation
                            End Site
                            {
                              OFFSET 0 -2.70003 1.09035e-05
                            }
                          }
                        }
                      }
                    }
                    JOINT RightHandRing
                    {
                      OFFSET 0.499988 -2.14998 -0.800004
                      CHANNELS 6 Xposition Yposition Zposition Zrotation Xrotation Yrotation
                      JOINT RightHandRing1
                      {
                        OFFSET 2.24399e-05 -7.75006 -0.199991
                        CHANNELS 6 Xposition Yposition Zposition Zrotation Xrotation Yrotation
                        JOINT RightHandRing2
                        {
                          OFFSET 0 -3.79999 0
                          CHANNELS 6 Xposition Yposition Zposition Zrotation Xrotation Yrotation
                          JOINT RightHandRing3
                          {
                            OFFSET 0 -3.39995 -1.87171e-05
                            CHANNELS 6 Xposition Yposition Zposition Zrotation Xrotation Yrotation
                            End Site
                            {
                              OFFSET 0 -2.59999 0
                            }
                          }
                        }
                      }
                    }
                    JOINT RightHandPinky
                    {
                      OFFSET 0.749975 -1.74998 -1.85002
                      CHANNELS 6 Xposition Yposition Zposition Zrotation Xrotation Yrotation
                      JOINT RightHandPinky1
                      {
                        OFFSET 1.89418e-05 -7.15003 -0.999994
                        CHANNELS 6 Xposition Yposition Zposition Zrotation Xrotation Yrotation
                        JOINT RightHandPinky2
                        {
                          OFFSET 0 -2.99997 0
                          CHANNELS 6 Xposition Yposition Zposition Zrotation Xrotation Yrotation
                          JOINT RightHandPinky3
                          {
                            OFFSET 0 -2.35001 1.0855e-05
                            CHANNELS 6 Xposition Yposition Zposition Zrotation Xrotation Yrotation
                            End Site
                            {
                              OFFSET 0 -2.1 -5.29952e-05
                            }
                          }
                        }
                      }
                    }
                  }
                }
              }
            }
          }
        }
      }
    }
  }
  JOINT LeftUpLeg
  {
    OFFSET 8.00001 0 0
    CHANNELS 6 Xposition Yposition Zposition Zrotation Xrotation Yrotation
    JOINT LeftLeg
    {
      OFFSET 0 -45.0001 -1.00001
      CHANNELS 6 Xposition Yposition Zposition Zrotation Xrotation Yrotation
      JOINT LeftFoot
      {
        OFFSET 1.58081e-05 -41 -1.99997
        CHANNELS 6 Xposition Yposition Zposition Zrotation Xrotation Yrotation
        JOINT LeftToeBase
        {
          OFFSET -1.73229e-05 -7.5 12.5
          CHANNELS 6 Xposition Yposition Zposition Zrotation Xrotation Yrotation
          JOINT LeftFootToe
          {
            OFFSET 0 0 4
            CHANNELS 6 Xposition Yposition Zposition Zrotation Xrotation Yrotation
            End Site
            {
              OFFSET 0 0 0
            }
          }
        }
      }
    }
  }
  JOINT RightUpLeg
  {
    OFFSET -8.00001 0 0
    CHANNELS 6 Xposition Yposition Zposition Zrotation Xrotation Yrotation
    JOINT RightLeg
    {
      OFFSET 0 -45 -1
      CHANNELS 6 Xposition Yposition Zposition Zrotation Xrotation Yrotation
      JOINT RightFoot
      {
        OFFSET 1.97252e-05 -41 -1.99999
        CHANNELS 6 Xposition Yposition Zposition Zrotation Xrotation Yrotation
        JOINT RightToeBase
        {
          OFFSET 1.84307e-05 -7.5 12.5
          CHANNELS 6 Xposition Yposition Zposition Zrotation Xrotation Yrotation
          JOINT RightFootToe
          {
            OFFSET 0 0 4
            CHANNELS 6 Xposition Yposition Zposition Zrotation Xrotation Yrotation
            End Site
            {
              OFFSET 0 0 0
            }
          }
        }
      }
    }
  }
}
MOTION
Frames:	3
Frame Time:	0.0111111
-317.839 92.0481 602.649 1.25454 5.00326 99.2631 0 8 0 -8.83579 -3.0817 -8.03416 -1.13687e-13 8 5.68434e-14 1.53506 2.72381 1.75668 0 8 5.68434e-14 0.767452 1.35636 0.88742 1.13687e-13 8 -5.68434e-14 0.777977 1.35569 0.887004 0 17 -5.68434e-14 -5.87499 9.29798 5.11718 0 10.8 0 -5.71661 24.8973 13.3283 5 17 0 -6.31714 -4.69526 2.83003 6.45 1.42109e-14 0 1.13261 -0.220154 2.51443 6.45 -4.26326e-14 -5.68434e-14 8.70824 -11.6208 -6.17567 -1.13687e-13 -32.4 -2 -71.7989 -27.8795 -14.5287 0 -25.65 2 9.5157 -4.61014 9.53583 -0.5 -1.5 2.65 -17.539 23.6704 -4.82999 0 -3.8 3.7 -1.03748 13.7631 -0.0707712 0 -3 2.7 -0.242608 38.426 0.122041 0 -1.9 1.6 -3.18055e-15 -3.18055e-15 3.18055e-15 -1.13687e-13 -8.3 1.9 -5.49744 16.85 1.23685 0 -4.5 0 -29.1965 -0.0155516 0.0188627 0 -3.4 5.68434e-14 -21.6109 -0.0128839 0.00310478 -0.25 -2.2 0.4 -3.18055e-15 -3.18055e-15 3.18055e-15 0 -8.3 1 -17.2253 15.0226 3.64003 0 -4.65 0 -3.56877 0.00189731 -0.0150262 0 -3.3 -5.68434e-14 -3.39595 0.00167029 -0.0131278 -0.5 -2.15 -0.8 -3.18055e-15 -3.18055e-15 3.18055e-15 0 -7.75 -0.2 -41.9187 12.3645 8.45823 2.84217e-14 -3.8 0 5.21857e-05 -0.00486214 -0.0405623 0 -3.4 0 3.56677e-05 0.00247094 -0.0363035 -0.75 -1.75 -1.85 -3.18055e-15 -3.18055e-15 3.18055e-15 0 -7.15 -1 -50.026 11.442 11.1874 1.42109e-14 -3 0 -0.0297665 0.0202965 -0.0431184 -1.42109e-14 -2.35 0 -1.76333e-05 0.0083413 -0.0567817 -5 17 -1.13687e-13 -2.86487 -2.64975 -1.68371 -6.45 1.42109e-14 5.68434e-14 -2.3287 -0.475953 -0.86509 -6.45 2.84217e-14 0 -22.9254 -27.9123 26.097 0 -32.4 -2 129.56 -45.0693 128.427 -4.26326e-14 -25.65 2 -0.193275 -0.336839 21.2012 0.5 -1.5 2.65 4.25325 -6.70405 -0.237085 0 -3.8 3.7 1.37618 39.9202 -0.523267 0 -3 2.7 0.269288 47.3581 -0.024237 0 -1.9 1.6 3.18055e-15 -3.97569e-16 4.12478e-15 2.84217e-14 -8.3 1.9 0.396399 -5.23828 0.0118385 -1.42109e-14 -4.5 0 14.5069 0.116945 0.033963 4.26326e-14 -3.4 -5.68434e-14 10.8155 0.0911514 0.0124346 0.25 -2.2 0.4 3.18055e-15 -3.97569e-16 4.12478e-15 1.42109e-14 -8.3 1 6.81824 -5.53142 0.0949665 0 -4.65 5.68434e-14 7.24045 0.0285621 0.0096659 2.13163e-14 -3.3 5.68434e-14 6.46271 0.0255188 0.0016712 0.5 -2.15 -0.8 3.18055e-15 -3.97569e-16 4.12478e-15 -1.42109e-14 -7.75 -0.2 18.4955 -6.66078 0.394416 -2.84217e-14 -3.8 0 0.00699618 -0.0230077 0.000191288 -1.42109e-14 -3.4 0 1.7595e-05 -0.0204628 0.000185901 0.75 -1.75 -1.85 3.18055e-15 -3.97569e-16 4.12478e-15 -2.84217e-14 -7.15 -1 24.8617 -7.68689 0.727351 2.84217e-14 -3 5.68434e-14 0.0031192 0.0297771 0.0215903 0 -2.35 0 -2.76201e-06 0.0297551 0.0213123 8 0 -5.68434e-14 -11.4556 8.61939 3.10131 0 -45 -1 -0.953083 1.0054 -2.91467 -1.13687e-13 -41 -2 7.76018 -7.48606 -6.17869 1.13687e-13 -7.5 12.5 -2.7317e-10 3.44586e-06 -1.76948e-07 1.13687e-13 0 4 -5.91945 -1.60902 55.5546 -8 2.84217e-14 0 -12.71 -13.6219 -4.76149 0 -45 -1 0.0500711 9.80668 -1.70939 0 -41 -2 5.21512 3.30353 -10.3918 -1.13687e-13 -7.5 12.5 -1.73661e-08 5.13792e-06 2.78295e-08 0 -1.77636e-15 4 0.859039 -3.29506 33.6026 
-317.89 92.0406 602.656 1.2697 5.00005 99.2854 0 8 5.68434e-14 -8.82969 -3.07567 -8.05087 1.13687e-13 8 5.68434e-14 1.53351 2.73271 1.71115 0 8 0 0.767934 1.36004 0.864682 -1.13687e-13 8 0 0.776669 1.36092 0.866802 0 17 5.68434e-14 -5.87327 9.34593 5.10547 0 10.8 5.68434e-14 -5.70842 24.9127 13.293 5 17 5.68434e-14 -6.32117 -4.61391 2.64852 6.45 -1.42109e-14 0 1.13449 -0.2176 2.53812 6.45 -5.68434e-14 0 8.63443 -11.6196 -5.95463 -1.13687e-13 -32.4 -2 -71.3753 -28.0015 -14.5173 5.68434e-14 -25.65 2 9.78028 -5.25714 9.33051 -0.5 -1.5 2.65 -16.9273 22.5115 -5.07213 -1.13687e-13 -3.8 3.7 -1.03732 13.536 -0.067428 0 -3 2.7 -0.13668 35.2933 0.0353564 5.68434e-14 -1.9 1.6 9.54166e-15 -3.18055e-15 -1.59028e-14 -5.68434e-14 -8.3 1.9 -5.12728 16.1396 1.13682 0 -4.5 0 -28.882 -0.01619 0.0173743 0 -3.4 5.68434e-14 -21.4235 -0.0126897 0.00377436 -0.25 -2.2 0.4 9.54166e-15 -3.18055e-15 -1.59028e-14 0 -8.3 1 -16.6973 14.9109 3.48112 1.13687e-13 -4.65 -5.68434e-14 -3.70091 0.00189731 -0.0195856 0 -3.3 0 -3.51567 0.00167029 -0.0169687 -0.5 -2.15 -0.8 9.54166e-15 -3.18055e-15 -1.59028e-14 0 -7.75 -0.2 -41.5077 12.9122 8.40955 2.84217e-14 -3.8 0 5.21857e-05 -0.00486214 -0.0405623 0 -3.4 0 3.56677e-05 0.00247094 -0.0363035 -0.75 -1.75 -1.85 9.54166e-15 -3.18055e-15 -1.59028e-14 0 -7.15 -1 -49.7571 12.4334 11.2352 0 -3 0 -0.0297665 0.0202965 -0.0431184 -4.26326e-14 -2.35 0 -1.76333e-05 0.0083413 -0.0567817 -5 17 5.68434e-14 -2.78358 -2.57138 -1.63139 -6.45 0 -5.68434e-14 -2.36353 -0.461378 -0.95882 -6.45 1.42109e-14 0 -23.1732 -27.8993 25.7958 1.13687e-13 -32.4 -2 129.91 -45.163 128.939 -1.42109e-14 -25.65 2 -0.734649 -1.15056 21.7323 0.5 -1.5 2.65 5.40803 -4.50568 0.0966296 0 -3.8 3.7 1.53124 38.108 -0.564788 -1.42109e-14 -3 2.7 0.27036 44.8368 -0.0789048 2.84217e-14 -1.9 1.6 1.59028e-15 9.93923e-16 -9.44227e-16 -1.42109e-14 -8.3 1.9 0.440544 -5.31703 0.00871022 -1.42109e-14 -4.5 5.68434e-14 16.4575 0.0938971 0.0169186 7.10543e-15 -3.4 -5.68434e-14 12.2284 0.0699888 0.0018409 0.25 -2.2 0.4 1.59028e-15 9.93923e-16 -9.44227e-16 1.42109e-14 -8.3 1 7.68713 -5.48008 0.0725992 -7.10543e-15 -4.65 -5.68434e-14 7.21714 0.00959161 0.00622846 2.84217e-14 -3.3 0 6.44578 0.00928909 0.0016712 0.5 -2.15 -0.8 1.59028e-15 9.93923e-16 -9.44227e-16 -2.84217e-14 -7.75 -0.2 20.5414 -6.55572 0.333038 -4.26326e-14 -3.8 -5.68434e-14 0.00699618 -0.0230077 0.000191288 1.42109e-14 -3.4 -5.68434e-14 1.7595e-05 -0.0204628 0.000185901 0.75 -1.75 -1.85 1.59028e-15 9.93923e-16 -9.44227e-16 -2.84217e-14 -7.15 -1 27.6072 -7.68717 0.684577 0 -3 0 0.0031192 0.0297771 0.0215903 0 -2.35 -5.68434e-14 -2.76201e-06 0.0297551 0.0213123 8 0 5.68434e-14 -11.4413 8.58524 3.19435 0 -45 -1 -0.95424 1.04632 -2.9337 -1.13687e-13 -41 -2 7.74439 -7.48463 -6.29967 0 -7.5 12.5 -2.7317e-10 3.44586e-06 -1.76948e-07 0 1.11022e-16 4 -5.93034 -1.62947 55.5558 -8 0 5.68434e-14 -12.7153 -13.6228 -4.81065 1.13687e-13 -45 -1 0.0491983 9.77786 -1.70925 1.13687e-13 -41 -2 5.19287 3.2885 -10.3262 0 -7.5 12.5 -1.73661e-08 5.13792e-06 2.78295e-08 0 0 4 0.878559 -3.31152 33.6041 
-317.941 92.0331 602.664 1.28486 4.99678 99.3077 0 8 5.68434e-14 -8.82358 -3.06963 -8.06758 0 8 -5.68434e-14 1.53197 2.74162 1.66561 1.13687e-13 8 5.68434e-14 0.76842 1.36373 0.841944 1.13687e-13 8 0 0.775793 1.36539 0.840454 -1.13687e-13 17 0 -5.87154 9.39389 5.09377 -1.13687e-13 10.8 -5.68434e-14 -5.70022 24.9281 13.2577 5 17 0 -6.32468 -4.5325 2.46705 6.45 -1.42109e-14 5.68434e-14 1.13537 -0.210085 2.55699 6.45 -2.84217e-14 -1.13687e-13 8.56059 -11.6182 -5.7336 -1.13687e-13 -32.4 -2 -70.9517 -28.1235 -14.5059 5.68434e-14 -25.65 2 10.0402 -5.90483 9.12597 -0.5 -1.5 2.65 -16.3262 21.3529 -5.3123 0 -3.8 3.7 -1.03713 13.309 -0.0640922 0 -3 2.7 -0.0419209 32.1605 -0.0447601 5.68434e-14 -1.9 1.6 -6.36111e-15 -3.18055e-15 -3.18055e-15 0 -8.3 1.9 -4.75969 15.4291 1.03767 0 -4.5 0 -28.5674 -0.0168284 0.0158859 0 -3.4 0 -21.2362 -0.0124954 0.00444395 -0.25 -2.2 0.4 -6.36111e-15 -3.18055e-15 -3.18055e-15 -5.68434e-14 -8.3 1 -16.1699 14.7991 3.32239 0 -4.65 -5.68434e-14 -3.83304 0.00189731 -0.024145 0 -3.3 0 -3.63538 0.00167029 -0.0208096 -0.5 -2.15 -0.8 -6.36111e-15 -3.18055e-15 -3.18055e-15 0 -7.75 -0.2 -41.0958 13.46 8.36143 0 -3.8 0 5.21857e-05 -0.00486214 -0.0405623 0 -3.4 0 3.56677e-05 0.00247094 -0.0363035 -0.75 -1.75 -1.85 -6.36111e-15 -3.18055e-15 -3.18055e-15 5.68434e-14 -7.15 -1 -49.49 13.4246 11.2868 2.84217e-14 -3 0 -0.0297665 0.0202965 -0.0431184 0 -2.35 -1.13687e-13 -1.76333e-05 0.0083413 -0.0567817 -5 17 0 -2.70243 -2.49301 -1.57907 -6.45 1.42109e-14 5.68434e-14 -2.3976 -0.454605 -1.04641 -6.45 2.84217e-14 0 -23.4206 -27.8853 25.4947 -5.68434e-14 -32.4 -2 130.262 -45.2531 129.454 -2.84217e-14 -25.65 2 -1.26088 -1.95817 22.2682 0.5 -1.5 2.65 6.5372 -2.3072 0.428473 -1.42109e-14 -3.8 3.7 1.68302 36.2958 -0.604851 0 -3 2.7 0.264925 42.3154 -0.129133 5.68434e-14 -1.9 1.6 -1.59028e-15 -1.78906e-15 5.91384e-15 -2.84217e-14 -8.3 1.9 0.48468 -5.39577 0.00558114 0 -4.5 -5.68434e-14 18.408 0.0708492 -0.000125806 1.42109e-14 -3.4 0 13.6413 0.0488263 -0.00875277 0.25 -2.2 0.4 -1.59028e-15 -1.78906e-15 5.91384e-15 2.84217e-14 -8.3 1 8.55605 -5.42874 0.0502359 7.10543e-15 -4.65 -5.68434e-14 7.19383 -0.00937886 0.00279102 2.13163e-14 -3.3 5.68434e-14 6.42885 -0.00694057 0.0016712 0.5 -2.15 -0.8 -1.59028e-15 -1.78906e-15 5.91384e-15 0 -7.75 -0.2 22.5875 -6.45065 0.271688 -4.26326e-14 -3.8 -5.68434e-14 0.00699618 -0.0230077 0.000191288 2.84217e-14 -3.4 0 1.7595e-05 -0.0204628 0.000185901 0.75 -1.75 -1.85 -1.59028e-15 -1.78906e-15 5.91384e-15 -2.84217e-14 -7.15 -1 30.3528 -7.68745 0.641803 2.84217e-14 -3 0 0.0031192 0.0297771 0.0215903 2.84217e-14 -2.35 0 -2.76201e-06 0.0297551 0.0213123 8 0 5.68434e-14 -11.427 8.55109 3.28737 0 -45 -1 -0.95537 1.08723 -2.95273 1.13687e-13 -41 -2 7.7286 -7.48316 -6.42065 -1.13687e-13 -7.5 12.5 -2.7317e-10 3.44586e-06 -1.76948e-07 -1.13687e-13 -1.11022e-16 4 -5.93979 -1.65135 55.556 -8 0 0 -12.7206 -13.6236 -4.85981 0 -45 -1 0.0483257 9.74904 -1.7091 0 -41 -2 5.17066 3.27347 -10.2607 0 -7.5 12.5 -1.73661e-08 5.13792e-06 2.78295e-08 0 -1.77636e-15 4 0.898041 -3.32962 33.6053 
